<?xml version="1.0" encoding="iso-8859-1"?>
<!-- Generator: Adobe Illustrator 24.1.0, SVG Export Plug-In . SVG Version: 6.00 Build 0)  -->
<svg version="1.1" xmlns="http://www.w3.org/2000/svg" xmlns:xlink="http://www.w3.org/1999/xlink" x="0px" y="0px"
	 viewBox="0 0 512 512" style="enable-background:new 0 0 512 512;" xml:space="preserve">
<g id="_x33_5_x2C__google">
	<g>
		<path style="fill:#209F62;" d="M349.464,312.669L235.434,510.172C104.219,499.702,1.003,389.907,1.003,255.997
			c0-53.83,16.674-103.758,45.15-144.901l114.27,197.919c18.641,33.556,54.455,56.266,95.577,56.266
			C295.613,365.282,330.293,344.205,349.464,312.669z"/>
		<path style="fill:#FFFFFF;" d="M146.716,255.997c0-60.356,48.928-109.285,109.284-109.285s109.284,48.928,109.284,109.285
			c0,60.283-48.836,109.285-109.284,109.285C195.549,365.282,146.716,316.249,146.716,255.997z M323.652,255.997
			c0-37.365-30.287-67.652-67.652-67.652s-67.652,30.287-67.652,67.652s30.287,67.652,67.652,67.652
			S323.652,293.362,323.652,255.997z"/>
		<circle style="fill:#4B86EC;" cx="256" cy="255.997" r="67.652"/>
		<path style="fill:#E5BB38;" d="M486.455,146.713c15.737,33.118,24.542,70.171,24.542,109.285
			c0,148.636-126.653,266.051-275.563,254.175c1.12-1.94-13.279,22.997,114.249-197.867c9.908-16.445,15.602-35.71,15.602-56.308
			c0-60.356-48.928-109.285-109.284-109.285H486.455z"/>
		<path style="fill:#D34D48;" d="M486.455,146.713H256c-60.356,0-109.284,48.928-109.284,109.285
			c0,19.244,4.975,37.313,13.707,53.019L46.153,111.096C92.167,44.578,168.999,1,256,1C357.718,1,445.531,60.565,486.455,146.713z"
			/>
	</g>
</g>
<g id="Layer_1">
</g>
</svg>
