<?xml version="1.0" encoding="iso-8859-1"?>
<!-- Generator: Adobe Illustrator 24.1.0, SVG Export Plug-In . SVG Version: 6.00 Build 0)  -->
<svg version="1.1" xmlns="http://www.w3.org/2000/svg" xmlns:xlink="http://www.w3.org/1999/xlink" x="0px" y="0px"
	 viewBox="0 0 512 512" style="enable-background:new 0 0 512 512;" xml:space="preserve">
<g id="_x33_1_x2C__amazon">
	<g>
		<path style="fill:#4E4B4C;" d="M347.796,289.276c-5.636-24.516-3.466-46.54-2.665-126.64c0,0-0.888-28.315-5.975-39.176
			c-5.102-10.833-18.801-40.495-94.085-40.266c0,0-36.727-2.436-68.407,9.285c-31.639,11.722-44.25,45.366-47.588,56.658
			l60.211,9.084c0,0,5.331-17.481,18.614-23.7c13.269-6.191,21.006-5.303,29.861-5.303c0,0,23.471-0.659,33.215,8.427
			c9.744,9.056,7.967,21.035,7.967,21.035l0.037,9.715c0,0-35.889,9.313-71.081,15.275c-35.221,5.99-88.095,19.03-88.095,70.184
			c0,51.127,44.693,69.267,86.533,69.267c41.827,0,71.503-26.108,77.478-30.549c0,0,6.634,22.152,8.397,25.018h67.533
			C359.747,317.591,351.58,305.641,347.796,289.276z M270.076,261.135c-10.388,10.202-23.443,19.716-43.833,19.716
			c-20.334,0-37.6-12.38-37.6-31.638c0-19.259,17.251-24.818,30.764-28.344c13.485-3.552,51.571-10.632,59.539-13.068v18.371
			C278.946,226.172,280.507,250.99,270.076,261.135z"/>
		<path style="fill:#EAAB11;" d="M457.881,350.564c-4.851,3.953-23.138,17.886-54.841,31.221
			c-42.955,18.068-91.186,27.229-143.351,27.229c-115.075,0-179.335-50.51-230.968-91.096c-3.951-3.106-7.811-6.14-11.594-9.072
			c-4.365-3.38-10.647-2.588-14.031,1.778c-3.383,4.365-2.587,10.648,1.778,14.031c54.806,42.468,124.822,104.359,254.814,104.359
			c127.153,0,197.931-52.436,210.827-62.947c4.281-3.489,4.924-9.788,1.435-14.07C468.46,347.716,462.161,347.077,457.881,350.564z"
			/>
		<path style="fill:#EAAB11;" d="M481.865,316.055c-8.78,0-42.501,3.028-46.318,3.374c-5.5,0.497-9.556,5.36-9.058,10.861
			c0.498,5.501,5.365,9.563,10.861,9.058c10.119-0.915,37.845-3.292,44.515-3.292c3.613,0,7.161,1.145,8.437,2.721
			c0.99,1.225,0.764,3.516,0.392,5.258c-3.358,16.005-8.981,35.284-14.324,49.115c-2.544,6.587,2.359,13.607,9.326,13.607
			c4.012-0.001,7.798-2.433,9.33-6.4c5.697-14.75,11.68-35.246,15.234-52.18C514.371,328.933,500.862,316.055,481.865,316.055z"/>
	</g>
</g>
<g id="Layer_1">
</g>
</svg>
