<?xml version="1.0" encoding="UTF-8"?>  <svg version="1.1" xmlns="http://www.w3.org/2000/svg" viewBox="0 0 768 768">
  <!-- Created by: https://svgatlas.com --> <path d="M0,0 L768,0 L768,768 L0,768 Z M382,18 L374,29 L359,44 L357,47 L352,46 L337,39 L334,40 L338,49 L341,58 L322,49 L298,39 L296,39 L296,41 L298,41 L298,47 L297,48 L289,48 L287,47 L273,46 L251,46 L255,49 L266,55 L272,59 L258,60 L239,65 L225,71 L217,76 L220,78 L239,83 L240,84 L220,95 L215,97 L205,92 L192,88 L177,88 L165,91 L152,98 L145,105 L137,119 L134,129 L134,152 L138,167 L142,175 L151,187 L157,195 L155,200 L146,214 L134,236 L122,262 L111,292 L107,305 L108,309 L119,300 L132,289 L140,283 L134,291 L126,306 L114,334 L108,351 L104,367 L108,365 L122,355 L133,348 L135,348 L132,357 L129,371 L125,400 L120,418 L116,441 L116,477 L121,499 L127,517 L137,538 L149,555 L160,569 L172,583 L180,591 L186,598 L194,605 L199,609 L202,616 L207,621 L212,625 L219,633 L222,636 L224,636 L226,640 L230,639 L228,634 L229,631 L236,634 L241,637 L243,642 L254,654 L265,664 L268,667 L274,670 L277,671 L277,673 L281,673 L281,675 L298,683 L305,688 L312,690 L313,688 L316,691 L318,691 L331,698 L336,701 L335,705 L349,714 L359,720 L364,722 L364,724 L366,724 L367,726 L368,723 L373,728 L382,740 L385,740 L385,738 L387,738 L386,741 L390,744 L390,742 L395,744 L402,752 L407,757 L413,765 L416,765 L421,755 L428,746 L438,737 L443,732 L451,725 L459,718 L469,711 L479,704 L486,699 L494,695 L502,690 L513,684 L524,678 L543,668 L559,660 L567,654 L579,644 L589,630 L595,622 L599,614 L602,611 L601,621 L603,625 L605,624 L605,622 L607,622 L608,624 L610,618 L619,608 L626,600 L635,589 L638,584 L647,574 L650,569 L655,563 L658,560 L659,553 L664,544 L669,531 L671,529 L673,520 L675,509 L677,490 L678,486 L677,468 L676,462 L674,451 L674,443 L673,441 L671,441 L669,426 L667,422 L665,420 L663,409 L662,396 L660,395 L663,386 L668,388 L671,388 L671,390 L678,393 L681,396 L683,396 L686,392 L684,382 L683,377 L679,364 L676,355 L674,344 L671,336 L671,332 L674,331 L674,333 L678,335 L684,332 L686,333 L685,324 L677,305 L673,297 L669,288 L665,279 L663,274 L661,268 L661,265 L659,265 L656,255 L655,247 L652,246 L651,240 L649,241 L643,229 L641,227 L639,221 L640,215 L638,215 L645,207 L649,200 L655,192 L659,179 L661,177 L661,163 L657,150 L655,144 L653,144 L652,139 L650,133 L647,129 L645,129 L645,127 L639,122 L631,120 L630,118 L627,118 L625,112 L619,103 L609,95 L600,91 L593,89 L571,89 L558,93 L551,97 L547,96 L533,88 L523,84 L529,81 L547,77 L543,73 L525,65 L509,61 L493,59 L509,49 L514,47 L514,46 L491,46 L473,50 L464,54 L462,55 L464,49 L468,41 L468,39 L459,42 L436,52 L427,57 L435,43 L438,38 L433,39 L414,47 L410,48 L401,38 L389,26 L384,18 Z " fill="#FBF9F6" transform="translate(0,0)"/> <path d="M0,0 L8,0 L16,5 L20,7 L21,9 L22,7 L31,10 L47,18 L65,28 L77,37 L82,41 L84,43 L82,38 L87,40 L94,44 L98,44 L99,49 L101,50 L102,55 L106,64 L110,70 L110,76 L115,73 L132,57 L139,50 L143,52 L154,70 L166,93 L176,115 L186,141 L192,159 L192,165 L184,159 L171,148 L161,140 L159,139 L166,149 L176,168 L187,196 L194,218 L194,222 L190,220 L173,208 L164,203 L168,218 L170,230 L171,247 L176,265 L181,287 L183,303 L183,325 L179,349 L170,375 L162,391 L149,410 L139,423 L127,436 L120,444 L105,459 L100,462 L101,457 L105,442 L107,431 L107,420 L104,405 L100,393 L97,362 L93,346 L87,332 L85,308 L79,290 L71,274 L62,260 L60,256 L58,256 L56,251 L54,251 L48,244 L46,243 L46,241 L42,239 L41,236 L44,233 L47,233 L46,228 L54,222 L64,213 L72,203 L76,197 L80,187 L84,176 L82,175 L85,149 L87,149 L87,124 L84,114 L84,107 L82,107 L82,110 L80,110 L80,107 L78,107 L78,105 L76,105 L72,99 L61,83 L52,70 L44,58 L37,47 L31,36 L25,27 L23,26 L22,18 L17,17 L13,12 L13,10 L10,9 L5,4 L0,1 Z " fill="#1B2436" transform="translate(467,145)"/> <path d="M0,0 L2,0 L2,3 L4,4 L3,6 L-2,9 L0,13 L2,14 L2,16 L6,18 L10,22 L10,24 L12,24 L14,29 L16,29 L25,42 L33,56 L41,77 L43,89 L44,105 L50,119 L54,135 L57,166 L63,186 L63,196 L58,211 L50,228 L41,241 L32,251 L21,260 L5,269 L-22,284 L-44,297 L-66,311 L-82,323 L-95,333 L-105,342 L-113,349 L-119,354 L-117,349 L-111,338 L-104,331 L-96,320 L-86,310 L-79,302 L-70,293 L-63,285 L-50,270 L-39,256 L-26,239 L-10,215 L-6,208 L-8,188 L-13,156 L-17,136 L-17,126 L-19,126 L-20,134 L-28,154 L-40,179 L-50,198 L-58,215 L-61,218 L-67,205 L-70,206 L-79,217 L-87,224 L-97,233 L-111,244 L-124,254 L-126,254 L-127,258 L-129,255 L-129,167 L-117,150 L-110,136 L-108,136 L-108,163 L-101,157 L-98,153 L-94,152 L-91,144 L-89,144 L-89,142 L-87,142 L-86,139 L-85,139 L-85,155 L-85,158 L-76,148 L-69,134 L-68,130 L-68,120 L-71,107 L-76,102 L-75,98 L-69,99 L-63,101 L-56,101 L-47,95 L-39,86 L-34,80 L-32,70 L-27,55 L-26,33 L-26,19 L-20,12 L-11,7 L-9,7 L-8,3 Z " fill="#0E192D" transform="translate(511,372)"/> <path d="M0,0 L7,1 L28,11 L29,12 L29,56 L35,72 L42,85 L50,94 L55,98 L56,102 L61,104 L67,109 L69,120 L70,133 L77,147 L86,157 L87,145 L91,142 L97,151 L100,157 L100,161 L104,159 L102,159 L103,157 L109,162 L108,158 L108,140 L110,143 L113,144 L117,151 L117,153 L119,153 L122,159 L126,164 L130,165 L129,254 L120,249 L107,239 L94,228 L84,219 L79,215 L70,204 L67,202 L64,212 L62,217 L60,217 L47,191 L39,175 L28,152 L20,131 L19,127 L18,128 L13,162 L12,164 L9,186 L7,199 L7,207 L17,224 L31,244 L41,257 L50,268 L62,282 L74,295 L75,298 L79,300 L86,308 L97,320 L110,338 L116,345 L118,351 L111,345 L99,334 L82,321 L52,301 L31,288 L6,274 L-19,260 L-29,252 L-39,242 L-46,232 L-55,215 L-61,198 L-62,191 L-62,182 L-58,169 L-56,166 L-55,147 L-50,121 L-44,106 L-35,94 L-32,90 L-30,90 L-28,86 L-11,73 L-9,72 L-7,52 L-1,28 L7,9 L5,9 L5,2 L0,4 L-7,5 L-7,3 Z " fill="#1A2436" transform="translate(253,373)"/> <path d="M0,0 L4,1 L9,6 L9,8 L13,10 L16,13 L20,23 L20,25 L22,25 L24,34 L24,54 L20,63 L15,68 L9,79 L3,84 L1,94 L3,94 L7,104 L11,106 L15,113 L18,120 L22,129 L24,138 L28,146 L31,155 L32,162 L35,162 L35,165 L37,165 L41,178 L45,188 L45,192 L47,192 L48,194 L48,200 L42,198 L40,197 L40,195 L34,195 L31,195 L31,207 L35,219 L37,222 L37,226 L39,226 L42,236 L44,240 L46,250 L46,256 L40,255 L36,253 L26,253 L26,267 L27,272 L27,280 L29,280 L31,301 L34,308 L38,337 L39,338 L40,347 L40,374 L38,388 L35,395 L33,402 L31,403 L28,411 L23,419 L20,428 L18,433 L14,440 L8,448 L4,454 L0,458 L-6,465 L-12,471 L-14,471 L-13,475 L-7,470 L-3,464 L5,456 L9,450 L11,449 L10,454 L8,457 L6,457 L4,462 L-7,474 L-11,480 L-14,485 L-17,488 L-19,488 L-19,490 L-21,490 L-22,493 L-24,492 L-24,483 L-22,477 L-21,468 L-23,465 L-27,467 L-29,472 L-36,478 L-38,482 L-43,487 L-45,491 L-47,491 L-49,495 L-51,498 L-53,498 L-54,503 L-57,508 L-68,517 L-70,519 L-71,523 L-80,527 L-84,530 L-90,531 L-90,533 L-96,534 L-97,537 L-105,541 L-109,542 L-111,545 L-113,545 L-113,547 L-124,551 L-130,554 L-134,559 L-144,563 L-149,566 L-154,571 L-160,575 L-162,578 L-171,583 L-174,586 L-179,589 L-186,595 L-191,600 L-197,602 L-197,604 L-208,612 L-213,615 L-218,621 L-219,623 L-224,622 L-227,620 L-227,618 L-229,618 L-232,615 L-234,614 L-235,616 L-235,614 L-238,614 L-241,605 L-229,592 L-225,589 L-220,587 L-215,583 L-212,583 L-212,581 L-210,581 L-210,579 L-201,572 L-194,567 L-193,565 L-195,564 L-174,550 L-158,540 L-152,540 L-148,537 L-143,536 L-138,533 L-137,531 L-130,529 L-130,527 L-134,526 L-106,511 L-94,503 L-82,492 L-72,478 L-64,463 L-58,447 L-56,440 L-55,440 L-55,451 L-59,471 L-62,481 L-50,470 L-47,468 L-42,469 L-40,464 L-28,451 L-29,447 L-20,437 L-8,420 L1,406 L9,387 L15,369 L19,345 L20,345 L21,353 L22,350 L22,329 L20,323 L19,323 L16,302 L12,285 L7,267 L6,250 L2,230 L0,222 L5,224 L16,231 L31,242 L25,222 L17,200 L13,191 L13,189 L15,189 L14,184 L12,184 L9,177 L7,173 L7,171 L13,171 L23,180 L28,184 L27,174 L29,174 L25,160 L24,159 L24,152 L22,152 L20,147 L17,148 L5,119 L-8,93 L-21,72 L-22,68 L-15,61 L-6,47 L-1,36 L1,23 L1,8 Z " fill="#E1D5C5" transform="translate(630,125)"/> <path d="M0,0 L2,0 L4,14 L11,54 L14,78 L13,83 L7,94 L-4,110 L-18,129 L-29,142 L-38,153 L-47,163 L-58,175 L-65,182 L-72,190 L-81,200 L-87,208 L-92,213 L-98,225 L-100,230 L-107,239 L-109,239 L-109,132 L-107,128 L-88,114 L-74,102 L-62,91 L-57,86 L-51,79 L-49,79 L-48,77 L-42,90 L-40,89 L-29,66 L-17,43 L-6,19 L-1,4 Z " fill="#142238" transform="translate(492,498)"/> <path d="M0,0 L2,0 L3,5 L0,6 L-1,9 L-6,14 L-16,25 L-23,35 L-35,56 L-40,68 L-44,84 L-45,103 L-50,113 L-54,128 L-57,145 L-58,164 L-62,172 L-64,180 L-64,192 L-65,192 L-65,201 L-62,215 L-59,224 L-57,233 L-63,229 L-75,218 L-82,210 L-83,207 L-82,205 L-84,205 L-85,198 L-87,191 L-89,191 L-91,187 L-93,176 L-95,176 L-99,163 L-105,136 L-110,118 L-110,108 L-106,98 L-96,83 L-84,69 L-73,60 L-61,37 L-56,32 L-53,31 L-52,27 L-47,22 L-37,12 L-32,8 L-20,4 L-14,2 L-1,1 Z " fill="#343746" transform="translate(256,375)"/> <path d="M0,0 L1,0 L1,147 L0,147 L-7,114 L-13,94 L-21,76 L-29,60 L-34,49 L-36,48 L-35,85 L-29,113 L-26,123 L-27,126 L-33,117 L-42,107 L-49,100 L-61,92 L-74,88 L-100,87 L-109,79 L-122,71 L-135,66 L-141,65 L-142,63 L-164,57 L-161,54 L-145,46 L-128,41 L-123,40 L-109,39 L-116,34 L-115,29 L-114,28 L-103,28 L-86,33 L-79,35 L-77,35 L-81,26 L-77,27 L-76,32 L-73,32 L-72,29 L-66,33 L-56,41 L-43,54 L-42,54 L-41,38 L-44,26 L-47,19 L-42,20 L-27,27 L-23,26 L-16,18 L-5,7 Z " fill="#DE693B" transform="translate(381,20)"/> <path d="M0,0 L7,0 L28,9 L42,18 L55,29 L63,38 L71,52 L71,127 L76,127 L76,128 L62,129 L51,133 L42,142 L32,155 L25,166 L22,165 L15,140 L13,131 L13,118 L18,99 L20,90 L20,82 L8,68 L1,62 L-1,48 L-2,34 L-2,3 Z " fill="#F79329" transform="translate(312,139)"/> <path d="M0,0 L6,0 L8,1 L7,22 L4,62 L-3,68 L-14,82 L-13,92 L-9,107 L-8,116 L-8,129 L-10,129 L-10,139 L-15,159 L-17,164 L-20,163 L-30,148 L-41,135 L-49,130 L-64,126 L-65,50 L-58,40 L-52,37 L-43,27 L-41,23 L-30,15 L-27,15 L-27,13 L-11,5 L-4,1 Z " fill="#F57429" transform="translate(447,140)"/> <path d="M0,0 L5,0 L11,8 L16,12 L15,16 L17,16 L17,18 L22,18 L27,22 L31,26 L33,35 L24,38 L14,42 L4,45 L-5,49 L-15,53 L-22,55 L-35,61 L-42,64 L-45,67 L-48,67 L-48,69 L-52,69 L-52,71 L-55,73 L-58,73 L-58,75 L-63,79 L-66,79 L-68,92 L-69,105 L-69,138 L-67,142 L-69,142 L-68,156 L-65,166 L-64,174 L-61,182 L-57,199 L-56,205 L-54,205 L-53,210 L-51,210 L-49,214 L-47,225 L-45,225 L-42,232 L-42,239 L-40,239 L-41,242 L-46,237 L-56,226 L-68,210 L-78,195 L-87,176 L-93,158 L-98,136 L-98,100 L-93,73 L-88,54 L-87,47 L-84,46 L-78,71 L-76,79 L-72,77 L-68,70 L-58,58 L-49,44 L-44,36 L-42,36 L-41,32 L-38,31 L-36,26 L-27,15 L-23,9 L-21,9 L-20,7 L-15,6 L-6,1 Z " fill="#56393B" transform="translate(214,341)"/> <path d="M0,0 L2,2 L0,4 L0,27 L1,30 L1,39 L4,40 L5,55 L-6,69 L-17,82 L-18,84 L-20,84 L-22,88 L-30,99 L-34,104 L-38,108 L-39,111 L-41,111 L-43,117 L-47,122 L-55,134 L-67,149 L-70,155 L-74,154 L-81,126 L-81,121 L-83,121 L-82,105 L-78,86 L-76,82 L-77,80 L-75,80 L-75,78 L-81,76 L-87,73 L-90,72 L-88,68 L-75,56 L-69,49 L-61,42 L-56,35 L-36,20 L-10,5 Z " fill="#6A3F3B" transform="translate(211,266)"/> <path d="M0,0 L2,3 L8,20 L17,41 L27,61 L35,77 L42,91 L42,93 L44,92 L48,82 L50,81 L57,112 L64,136 L76,166 L83,185 L92,206 L92,211 L89,211 L80,199 L69,186 L61,178 L54,170 L47,163 L40,155 L28,141 L15,124 L2,106 L-11,85 L-12,83 L-12,75 L-8,50 L-7,40 L-5,30 Z " fill="#334154" transform="translate(271,497)"/> <path d="M0,0 L2,0 L0,6 L-4,14 L-4,16 L4,12 L19,8 L25,7 L48,7 L46,9 L36,14 L27,20 L48,23 L64,28 L80,36 L81,38 L60,43 L49,47 L31,55 L20,63 L16,67 L-2,68 L-17,71 L-27,76 L-36,83 L-45,92 L-54,104 L-56,106 L-55,99 L-50,80 L-48,72 L-46,56 L-45,41 L-37,30 L-26,20 L-18,13 L-14,11 L-14,9 L-12,9 L-12,7 L-14,6 Z " fill="#3D2F37" transform="translate(466,39)"/> <path d="M0,0 L4,5 L9,15 L-7,40 L-21,62 L-39,89 L-41,92 L-42,97 L-43,97 L-44,92 L-67,81 L-81,71 L-93,59 L-102,46 L-107,35 L-110,22 L-110,18 L-78,18 L-62,22 L-52,26 L-50,28 L-42,52 L-39,60 L-38,60 L-36,47 L-31,31 L-21,12 L-17,6 L-16,3 L0,2 Z " fill="#CE5424" transform="translate(325,293)"/> <path d="M0,0 L5,2 L10,6 L13,8 L13,22 L10,27 L2,37 L24,32 L35,30 L39,30 L38,40 L35,52 L29,54 L14,62 L-6,74 L-20,85 L-30,94 L-45,108 L-59,122 L-61,124 L-64,124 L-63,117 L-54,96 L-46,80 L-40,71 L-39,69 L-52,79 L-62,88 L-70,94 L-71,90 L-65,71 L-61,70 L-51,57 L-38,43 L-29,32 L-16,17 L-4,3 Z " fill="#413139" transform="translate(178,215)"/> <path d="M0,0 L9,0 L9,110 L-35,110 L-36,110 L-38,111 L-37,93 L-32,49 L-29,24 L-17,10 L-9,3 Z " fill="#FCE58D" transform="translate(374,267)"/> <path d="M0,0 L4,2 L14,14 L22,21 L37,34 L56,48 L62,52 L62,162 L59,161 L51,150 L47,142 L47,140 L43,138 L42,133 L41,126 L29,97 L24,83 L14,58 L6,31 L0,4 L-1,2 Z " fill="#2A384B" transform="translate(320,575)"/> <path d="M0,0 L8,0 L19,4 L27,11 L38,25 L42,61 L46,98 L47,113 L39,112 L39,110 L4,110 L1,109 Z " fill="#FBC670" transform="translate(383,267)"/> <path d="M0,0 L2,0 L3,6 L3,34 L1,47 L-3,63 L-6,76 L5,62 L16,51 L29,43 L40,40 L66,40 L90,43 L100,46 L110,50 L120,53 L134,61 L138,60 L141,60 L135,65 L118,59 L105,55 L96,53 L66,53 L51,57 L35,66 L34,69 L42,69 L54,71 L56,72 L57,76 L60,77 L61,80 L52,77 L47,75 L35,72 L29,73 L13,80 L-1,88 L-14,98 L-23,107 L-28,114 L-32,113 L-33,115 L-33,98 L-30,84 L-25,62 L-19,44 L-5,14 Z " fill="#241F2C" transform="translate(417,67)"/> <path d="M0,0 L6,1 L20,10 L32,20 L43,35 L57,57 L66,72 L65,80 L52,110 L49,117 L46,116 L48,116 L43,111 L35,104 L22,96 L19,94 L22,85 L25,79 L21,77 L4,65 L2,62 L6,10 L7,3 L-5,3 L-2,1 Z " fill="#EC6128" transform="translate(448,138)"/> <path d="M0,0 L3,0 L6,7 L8,8 L10,15 L12,15 L14,19 L17,20 L22,25 L34,42 L40,53 L40,79 L38,95 L37,96 L3,97 L-8,100 L-17,104 L-21,103 L-20,98 L-12,82 L-8,73 L-6,66 L-8,66 L-11,57 L-17,45 L-16,38 L-3,8 Z " fill="#CA4421" transform="translate(513,215)"/> <path d="M0,0 L4,4 L10,14 L12,21 L12,44 L13,50 L13,61 L12,64 L10,64 L9,70 L3,81 L1,88 L-3,90 L-4,92 L-6,92 L-8,96 L-10,96 L-10,99 L-16,101 L-26,92 L-37,83 L-51,71 L-59,63 L-64,59 L-70,52 L-75,52 L-70,47 L-63,41 L-61,36 L-48,32 L-40,28 L-40,11 L-38,12 L-37,21 L-37,30 L-43,32 L-48,37 L-53,39 L-58,43 L-61,47 L-58,52 L-51,57 L-40,57 L-36,56 L-34,51 L-30,47 L-25,38 L-23,32 L-19,21 L-14,17 L-7,9 L1,6 Z " fill="#D48846" transform="translate(470,368)"/> <path d="M0,0 L6,4 L6,6 L10,8 L15,13 L21,18 L24,30 L24,36 L29,38 L31,44 L36,51 L40,54 L44,55 L51,55 L65,48 L69,47 L67,41 L64,40 L64,38 L66,38 L66,40 L70,42 L73,44 L72,49 L61,61 L52,70 L41,79 L28,90 L19,98 L17,98 L17,100 L12,98 L4,91 L-3,80 L-9,67 L-12,58 L-12,25 L-9,12 Z " fill="#F7B764" transform="translate(293,371)"/> <path d="M0,0 L2,1 L2,32 L3,46 L4,51 L4,60 L6,61 L-13,74 L-15,76 L-14,82 L-11,88 L-11,92 L-25,100 L-35,108 L-39,112 L-38,114 L-41,115 L-46,102 L-58,74 L-59,71 L-43,45 L-31,27 L-19,13 L-4,2 Z " fill="#FAA837" transform="translate(309,141)"/> <path d="M0,0 L2,3 L16,35 L17,41 L12,54 L6,65 L4,65 L3,70 L13,92 L16,97 L16,99 L9,98 L-5,95 L-37,94 L-40,69 L-40,51 L-32,37 L-19,19 L-16,19 L-14,14 L-8,6 L-6,10 Z " fill="#F88521" transform="translate(252,217)"/> <path d="M0,0 L5,5 L13,21 L21,40 L27,61 L30,75 L30,89 L32,94 L32,110 L28,105 L20,94 L8,83 L-7,73 L-25,65 L-35,62 L-34,60 L-39,55 L-51,48 L-68,43 L-96,43 L-105,45 L-111,45 L-108,41 L-110,39 L-98,35 L-86,32 L-69,30 L-42,30 L-27,35 L-15,44 L-2,57 L5,67 L1,53 L-3,31 L-3,13 L-2,7 L-2,1 Z " fill="#943D2C" transform="translate(349,77)"/> <path d="M0,0 L1,0 L3,7 L9,19 L10,26 L12,26 L11,33 L7,42 L-1,58 L-2,63 L-1,65 L-6,70 L-14,92 L-19,104 L-22,107 L-24,110 L-28,106 L-32,98 L-32,95 L-35,94 L-36,89 L-40,87 L-52,68 L-54,65 L-57,60 L-57,57 L-59,57 L-61,50 L-61,52 L-63,51 L-56,39 L-50,40 L-38,40 L-25,35 L-17,28 L-12,18 L-10,9 L-19,12 L-22,12 L-22,14 L-28,14 L-29,10 L-28,8 L-15,8 L-6,5 L-2,2 L0,2 Z " fill="#9D3922" transform="translate(495,255)"/> <path d="M0,0 L1,4 L-5,59 L-8,87 L-10,94 L-11,105 L-8,105 L-7,108 L-8,110 L-1,110 L4,112 L0,108 L11,110 L14,114 L14,118 L18,122 L18,125 L4,132 L0,134 L-7,134 L-12,132 L-17,127 L-22,121 L-23,116 L-27,114 L-30,98 L-35,93 L-41,88 L-46,82 L-50,80 L-51,77 L-41,62 L-27,40 L-13,18 L-9,12 L-7,12 L-5,7 Z " fill="#FBB446" transform="translate(344,293)"/> <path d="M0,0 L34,0 L34,2 L32,2 L31,11 L27,24 L25,25 L24,28 L22,28 L20,34 L18,34 L16,38 L10,46 L5,48 L5,50 L3,50 L3,52 L0,52 L0,55 L-2,55 L-2,57 L-5,59 L-8,59 L-8,61 L-12,61 L-12,63 L-23,69 L-28,69 L-29,73 L-33,74 L-34,76 L-39,67 L-44,60 L-45,54 L-42,49 L-38,41 L-31,22 L-27,12 L-22,8 L-14,4 L-5,1 Z " fill="#843321" transform="translate(516,311)"/> <path d="M0,0 L30,0 L46,4 L62,10 L72,14 L81,21 L88,27 L88,29 L91,30 L91,31 L70,31 L80,40 L87,47 L93,59 L93,61 L88,59 L76,53 L57,46 L16,31 L-5,22 L-18,19 L-32,17 L-31,13 L-15,4 Z " fill="#3A313B" transform="translate(483,119)"/> <path d="M0,0 L28,0 L45,5 L57,12 L62,16 L62,18 L47,19 L20,28 L9,33 L-20,43 L-33,48 L-42,50 L-53,54 L-57,53 L-56,48 L-48,41 L-45,35 L-41,31 L-60,31 L-54,24 L-45,16 L-41,13 L-31,9 L-20,5 L-4,1 Z " fill="#A4553E" transform="translate(253,119)"/> <path d="M0,0 L4,4 L11,12 L24,25 L26,28 L32,26 L51,18 L54,19 L47,29 L43,37 L58,29 L66,26 L70,26 L70,28 L68,28 L68,30 L60,37 L46,49 L41,55 L38,60 L37,75 L36,75 L35,47 L33,47 L30,58 L22,76 L14,94 L9,109 L4,131 L1,145 L0,145 Z " fill="#302934" transform="translate(384,20)"/> <path d="M0,0 L4,5 L9,10 L10,5 L11,8 L12,15 L27,38 L41,60 L45,66 L45,72 L48,73 L47,78 L43,82 L33,90 L32,93 L30,94 L28,104 L26,107 L23,116 L19,122 L12,128 L2,130 L-6,127 L-6,123 L-10,124 L-13,121 L-8,115 L-3,111 L2,109 L5,108 L6,105 L12,104 L10,86 L8,84 L6,61 L3,34 L0,9 Z " fill="#E8832D" transform="translate(421,294)"/> <path d="M0,0 L12,0 L21,4 L32,11 L37,15 L37,17 L25,26 L17,34 L36,34 L30,41 L23,47 L16,57 L14,61 L14,64 L30,56 L37,53 L42,53 L36,60 L29,69 L23,79 L18,78 L4,70 L-6,61 L-13,52 L-18,41 L-19,35 L-19,24 L-15,13 L-8,4 Z " fill="#161B2D" transform="translate(177,115)"/> <path d="M0,0 L13,0 L19,3 L26,10 L30,18 L32,24 L32,35 L29,46 L23,56 L14,66 L4,73 L-7,79 L-10,79 L-15,69 L-28,55 L-31,52 L-25,53 L-6,61 L0,65 L-7,51 L-20,38 L-24,34 L-3,34 L-8,29 L-18,21 L-24,17 L-18,10 L-5,2 Z " fill="#0A1225" transform="translate(576,115)"/> <path d="M0,0 L13,0 L40,4 L57,7 L59,20 L59,28 L57,37 L55,41 L53,41 L52,46 L51,48 L48,48 L48,52 L45,52 L44,40 L42,37 L40,30 L38,30 L38,38 L36,38 L35,43 L33,47 L31,47 L30,52 L25,54 L25,57 L23,57 L20,36 L18,36 L15,45 L5,60 L0,61 Z " fill="#E69B4D" transform="translate(383,472)"/> <path d="M0,0 L11,0 L11,62 L9,62 L9,59 L7,58 L3,56 L-5,43 L-7,36 L-9,36 L-10,38 L-11,59 L-13,58 L-13,56 L-17,55 L-18,49 L-20,49 L-23,45 L-24,38 L-25,37 L-25,30 L-28,31 L-32,36 L-34,47 L-38,49 L-39,46 L-43,45 L-45,40 L-47,28 L-47,18 L-45,7 L-31,4 Z " fill="#FBC468" transform="translate(371,472)"/> <path d="M0,0 L7,3 L16,10 L26,13 L33,14 L34,16 L34,31 L32,44 L24,60 L16,71 L10,78 L2,85 L-8,95 L-16,102 L-18,104 L-21,104 L-23,86 L-26,78 L-26,74 L-10,65 L-2,57 L4,48 L8,46 L11,37 L10,20 L9,19 L9,7 L7,7 L7,5 L1,4 L-1,1 Z " fill="#943721" transform="translate(598,117)"/> <path d="M0,0 L5,1 L-2,13 L-4,20 L-4,31 L-2,39 L4,51 L13,61 L23,68 L29,72 L28,79 L24,90 L22,100 L16,96 L1,82 L-6,76 L-12,68 L-21,56 L-24,51 L-26,39 L-27,37 L-27,12 L-10,8 Z " fill="#E15F1D" transform="translate(163,119)"/> <path d="M0,0 L3,1 L-6,11 L-16,26 L-28,48 L-39,57 L-48,67 L-58,82 L-65,94 L-67,91 L-67,58 L-65,37 L-57,30 L-36,17 L-10,4 Z " fill="#9E513F" transform="translate(211,388)"/> <path d="M0,0 L1,2 L6,4 L11,8 L13,18 L17,26 L23,33 L32,38 L40,40 L39,45 L34,54 L26,69 L20,88 L19,98 L16,98 L7,73 L4,65 L0,62 L2,61 L1,54 L-9,36 L-11,32 L-10,26 L-7,17 L-3,9 Z " fill="#E46420" transform="translate(269,255)"/> <path d="M0,0 L4,1 L12,9 L20,19 L20,27 L15,49 L13,55 L12,65 L7,60 L0,55 L-40,54 L-44,51 L-36,43 L-26,36 L-17,31 L-15,31 L-19,21 L-20,15 L-10,7 Z " fill="#FAE58F" transform="translate(313,202)"/> <path d="M0,0 L4,1 L21,13 L24,15 L23,19 L19,28 L19,30 L31,37 L41,45 L47,50 L47,52 L42,54 L4,55 L-5,61 L-8,63 L-14,38 L-17,26 L-17,20 L-8,9 Z " fill="#F7BD66" transform="translate(449,202)"/> <path d="M0,0 L6,0 L6,3 L3,4 L2,8 L-7,18 L-17,33 L-29,52 L-39,68 L-52,86 L-64,103 L-73,117 L-75,119 L-74,112 L-69,91 L-64,75 L-58,60 L-52,49 L-44,37 L-41,31 L-30,23 L-16,12 L-3,2 Z " fill="#181D2E" transform="translate(288,147)"/> <path d="M0,0 L10,0 L10,1 L49,3 L50,5 L50,16 L47,16 L47,18 L40,18 L28,12 L20,13 L15,17 L12,24 L10,38 L7,47 L8,47 L9,64 L11,66 L9,68 L8,73 L-1,72 L0,66 L1,47 L-1,47 L-4,34 L-5,23 L-9,16 L-16,12 L-22,12 L-31,17 L-32,20 L-29,20 L-28,23 L-36,22 L-41,19 L-43,17 L-43,7 L-41,3 L-23,3 L-23,1 Z " fill="#0E1A2D" transform="translate(379,379)"/> <path d="M0,0 L2,0 L2,2 L4,2 L3,7 L-4,24 L-9,45 L-11,65 L-27,77 L-32,81 L-41,92 L-45,96 L-45,79 L-40,60 L-32,44 L-22,27 L-14,17 L-5,7 L-3,4 L-1,4 Z " fill="#242E40" transform="translate(256,380)"/> <path d="M0,0 L2,1 L-4,12 L-10,21 L-16,34 L-21,47 L-25,61 L-26,67 L-27,65 L-56,71 L-64,72 L-62,68 L-55,60 L-54,57 L-53,34 L-45,24 L-43,24 L-41,20 L-40,24 L-42,28 L-43,42 L-36,33 L-27,23 L-15,11 Z " fill="#2C2735" transform="translate(244,180)"/> <path d="M0,0 L5,0 L10,5 L10,7 L15,9 L15,11 L19,13 L23,16 L16,22 L7,33 L-2,43 L-11,54 L-20,64 L-27,72 L-30,75 L-35,73 L-35,67 L-26,47 L-16,26 L-3,4 Z " fill="#6F413C" transform="translate(155,200)"/> <path d="M0,0 L15,0 L30,5 L43,12 L54,21 L62,27 L62,29 L43,38 L38,41 L33,40 L23,33 L17,30 L14,27 L3,26 L2,23 L2,2 L-4,2 Z " fill="#F98A24" transform="translate(177,88)"/> <path d="M0,0 L16,0 L16,20 L13,25 L0,29 L-15,38 L-17,40 L-21,39 L-37,31 L-44,27 L-39,22 L-30,14 L-23,9 L-8,2 Z " fill="#D94F26" transform="translate(571,89)"/> <path d="M0,0 L17,0 L14,2 L9,4 L2,5 L-10,10 L-19,16 L-35,29 L-51,41 L-63,49 L-74,58 L-89,73 L-98,85 L-100,87 L-99,71 L-97,67 L-97,64 L-104,72 L-105,72 L-104,63 L-102,57 L-98,54 L-92,52 L-85,46 L-83,46 L-84,50 L-88,55 L-88,57 L-81,48 L-73,41 L-58,31 L-42,22 L-31,18 L-29,18 L-27,14 L-19,11 L-20,7 L-10,3 Z " fill="#6F3731" transform="translate(300,137)"/> <path d="M0,0 L6,0 L15,10 L23,17 L36,29 L46,37 L56,46 L64,51 L60,54 L51,53 L25,41 L-6,25 L-7,24 L-7,6 Z " fill="#C67234" transform="translate(394,419)"/> <path d="M0,0 L3,1 L3,10 L2,11 L2,20 L6,18 L6,16 L8,16 L9,13 L11,14 L4,22 L3,27 L2,25 L0,25 L-1,28 L-3,27 L-4,20 L-3,14 L-9,22 L-12,27 L-16,33 L-27,48 L-38,57 L-47,64 L-64,72 L-81,81 L-95,88 L-105,94 L-111,98 L-122,104 L-130,110 L-140,117 L-151,125 L-160,134 L-166,138 L-170,143 L-178,150 L-186,161 L-189,168 L-192,168 L-194,163 L-190,162 L-190,158 L-187,155 L-183,150 L-179,143 L-171,137 L-163,130 L-159,128 L-157,124 L-156,122 L-153,122 L-153,120 L-150,117 L-139,111 L-130,104 L-120,97 L-115,95 L-115,93 L-108,90 L-102,86 L-90,80 L-85,77 L-69,69 L-64,68 L-64,66 L-55,62 L-45,56 L-43,56 L-41,52 L-36,49 L-34,46 L-32,46 L-32,44 L-28,40 L-19,27 L-14,20 L-8,9 L-5,6 L-2,1 Z " fill="#F1ECE4" transform="translate(605,597)"/> <path d="M0,0 L17,7 L27,13 L27,17 L15,26 L8,32 L10,35 L1,33 L-9,29 L-19,27 L-37,25 L-56,24 L-56,23 L-38,23 L-37,20 L-23,10 L-5,2 Z " fill="#31242E" transform="translate(520,83)"/> <path d="M0,0 L3,4 L2,13 L0,9 L-4,9 L-6,14 L-8,17 L-10,17 L-12,22 L-18,32 L-31,51 L-34,52 L-34,54 L-41,60 L-48,66 L-60,73 L-66,74 L-66,76 L-84,84 L-92,89 L-109,98 L-113,101 L-117,101 L-117,103 L-128,110 L-137,117 L-149,125 L-152,125 L-153,128 L-155,128 L-155,130 L-161,131 L-163,135 L-168,137 L-168,139 L-173,143 L-177,142 L-172,137 L-167,134 L-164,133 L-162,129 L-154,122 L-149,119 L-142,114 L-139,113 L-134,108 L-128,104 L-124,100 L-120,97 L-110,93 L-106,88 L-93,83 L-90,83 L-90,81 L-88,81 L-86,77 L-76,73 L-73,70 L-67,69 L-67,67 L-60,64 L-54,60 L-48,59 L-47,54 L-36,44 L-34,43 L-30,34 L-25,29 L-22,26 L-18,19 L-15,18 L-13,13 L-7,8 L-4,3 Z " fill="#E9DED2" transform="translate(607,589)"/> <path d="M0,0 L7,3 L9,4 L11,8 L11,24 L-22,41 L-43,51 L-49,53 L-55,53 L-57,51 L-52,46 L-41,36 L-31,28 L-17,16 L-5,4 L-3,1 Z " fill="#E98B32" transform="translate(366,420)"/> <path d="M0,0 L11,0 L12,24 L23,24 L26,27 L21,26 L9,26 L1,30 L-5,30 L-15,38 L-27,41 L-32,41 L-31,66 L-29,73 L-30,77 L-34,62 L-34,39 L-30,27 L-23,15 L-16,8 Z " fill="#E86F1F" transform="translate(168,90)"/> <path d="M0,0 L8,0 L25,7 L36,15 L43,21 L42,23 L25,25 L4,31 L-1,30 L-15,18 L-21,14 L-21,12 L-11,6 Z " fill="#C44F2F" transform="translate(238,85)"/> <path d="M0,0 L9,1 L20,5 L28,11 L33,15 L39,25 L44,37 L44,42 L37,42 L25,38 L15,30 L2,27 L-8,26 L-8,25 L-3,25 L-2,21 L-1,20 Z " fill="#B03E23" transform="translate(587,89)"/> <path d="M0,0 L4,0 L4,2 L-4,7 L-11,9 L-21,9 L-24,8 L-24,13 L-19,14 L-21,20 L-25,25 L-30,28 L-38,28 L-43,26 L-47,32 L-49,29 L-49,33 L-51,33 L-51,31 L-53,31 L-53,22 L-51,13 L-47,7 L-38,1 Z " fill="#0E1221" transform="translate(491,255)"/> <path d="M0,0 L10,3 L29,11 L58,22 L73,27 L73,29 L81,36 L90,47 L91,51 L86,50 L77,45 L79,49 L76,49 L71,44 L59,35 L41,25 L25,17 L16,13 L15,16 L13,13 L5,9 L4,5 L0,5 L-1,2 Z " fill="#2F2935" transform="translate(473,139)"/> <path d="M0,0 L2,0 L5,3 L5,5 L9,7 L19,15 L22,20 L23,24 L27,26 L31,37 L33,45 L33,59 L31,61 L27,74 L18,86 L15,91 L10,97 L12,98 L11,103 L14,110 L20,120 L21,123 L23,122 L24,128 L27,129 L29,141 L31,147 L33,147 L32,152 L29,148 L29,144 L26,143 L23,136 L17,124 L14,117 L13,113 L8,111 L5,101 L3,101 L3,93 L8,87 L12,83 L17,74 L20,70 L22,70 L23,66 L25,61 L25,41 L24,32 L22,32 L16,19 L11,15 L9,11 L2,7 Z " fill="#F0EAE1" transform="translate(628,118)"/> <path d="M0,0 L1,3 L3,4 L0,6 L-6,8 L-10,12 L-25,18 L-42,28 L-58,40 L-65,48 L-68,51 L-67,46 L-63,42 L-62,39 L-70,45 L-75,48 L-77,48 L-76,43 L-68,32 L-61,25 L-62,23 L-34,13 L-15,6 Z " fill="#874336" transform="translate(279,144)"/> <path d="M0,0 L5,2 L8,17 L8,20 L10,20 L11,24 L12,33 L13,44 L14,53 L15,66 L13,75 L11,95 L10,99 L8,108 L5,113 L1,123 L-4,132 L-4,137 L-6,141 L-11,146 L-15,151 L-21,158 L-24,160 L-22,155 L-17,148 L-14,142 L-9,132 L-5,130 L-4,124 L-2,121 L0,111 L3,102 L7,90 L8,75 L8,42 L4,17 L1,8 L0,8 Z " fill="#F0EAE1" transform="translate(663,421)"/> <path d="M0,0 L6,0 L13,3 L18,9 L20,22 L20,29 L15,30 L10,23 L5,25 L-2,25 L-8,21 L-13,15 L-15,11 L-14,5 L-13,3 L-11,3 L-12,10 L-9,10 L-8,6 L-6,6 L-4,2 Z " fill="#0C1629" transform="translate(307,258)"/> <path d="M0,0 L4,0 L3,9 L-2,19 L-9,26 L-21,31 L-24,32 L-36,32 L-41,30 L-36,20 L-33,16 L-28,18 L-20,18 L-13,13 L-8,3 Z " fill="#F0B05F" transform="translate(481,264)"/> <path d="M0,0 L8,1 L17,6 L21,8 L19,10 L12,12 L7,12 L6,19 L-3,27 L-14,35 L-15,36 L-16,53 L-17,53 L-17,35 L-14,27 L-11,9 L-5,2 Z " fill="#0B0F1F" transform="translate(402,390)"/> <path d="M0,0 L12,3 L18,13 L24,18 L34,20 L39,21 L41,31 L41,33 L30,33 L20,30 L11,24 L4,15 L0,2 Z " fill="#FAE08C" transform="translate(279,263)"/> <path d="M0,0 L9,1 L15,6 L18,12 L20,27 L21,34 L17,32 L5,23 L1,19 L-2,14 L-6,13 L-7,9 L-10,9 L-11,6 Z " fill="#0B1326" transform="translate(357,390)"/> <path d="M0,0 L4,5 L5,10 L11,24 L14,29 L21,44 L25,55 L25,61 L22,61 L16,63 L13,61 L13,59 L10,60 L11,67 L14,75 L16,85 L21,102 L23,107 L22,117 L18,116 L16,114 L19,112 L17,103 L14,96 L11,86 L8,78 L6,66 L5,59 L5,51 L10,52 L16,57 L21,58 L16,40 L13,35 L12,29 L8,28 L6,18 L4,18 L2,12 L1,4 Z " fill="#EFE9E0" transform="translate(661,272)"/> <path d="M0,0 L7,1 L42,19 L61,27 L61,28 L56,28 L52,26 L49,26 L49,29 L53,33 L48,31 L32,22 L9,11 L0,7 L-1,4 Z " fill="#0B101F" transform="translate(387,445)"/> <path d="M0,0 L10,5 L13,11 L18,13 L19,18 L23,20 L30,27 L42,34 L63,44 L63,46 L73,49 L77,51 L78,54 L74,54 L71,51 L70,53 L63,51 L56,46 L39,38 L39,36 L35,36 L35,34 L31,32 L26,30 L21,25 L5,10 L0,4 Z " fill="#F2EFE8" transform="translate(242,637)"/> <path d="M0,0 L1,4 L-1,10 L-2,17 L-5,22 L-6,26 L-11,31 L-14,38 L-20,49 L-23,51 L-25,51 L-31,59 L-38,66 L-41,71 L-48,76 L-48,71 L-40,64 L-35,58 L-29,51 L-22,41 L-18,36 L-16,29 L-13,24 L-10,15 L-6,10 L-3,2 Z " fill="#E8DDCF" transform="translate(664,525)"/> <path d="M0,0 L1,0 L1,19 L0,26 L-16,33 L-33,41 L-40,45 L-47,43 L-47,40 L-11,22 L-2,17 L0,17 Z " fill="#191826" transform="translate(379,426)"/> <path d="M0,0 L9,1 L25,8 L25,11 L31,12 L37,15 L37,17 L41,17 L41,19 L46,20 L46,22 L52,23 L55,25 L55,27 L49,26 L31,18 L12,13 L3,12 L3,3 L4,1 L-6,5 L-10,4 Z " fill="#BA642F" transform="translate(379,451)"/> <path d="M0,0 L9,1 L29,10 L33,13 L32,28 L29,28 L14,13 L6,7 L1,2 Z " fill="#C25231" transform="translate(308,46)"/> <path d="M0,0 L14,2 L20,4 L16,8 L0,18 L-10,26 L-12,26 L-10,17 L-6,8 L-4,8 L-3,3 Z " fill="#42343A" transform="translate(116,341)"/> <path d="M0,0 L3,1 L-2,6 L-10,14 L-15,17 L-17,17 L-18,20 L-20,20 L-22,24 L-25,29 L-29,35 L-31,35 L-31,39 L-33,39 L-34,41 L-41,35 L-46,30 L-52,23 L-56,22 L-57,24 L-60,20 L-59,18 L-61,18 L-61,20 L-63,20 L-61,15 L-56,11 L-54,16 L-54,19 L-51,19 L-51,21 L-49,21 L-49,23 L-45,25 L-42,27 L-41,30 L-37,32 L-33,31 L-28,25 L-26,25 L-24,21 L-17,14 L-16,12 L-11,10 L-7,8 L-7,6 L-1,2 Z " fill="#EBE5DC" transform="translate(446,720)"/> <path d="M0,0 L2,0 L5,9 L5,20 L7,20 L8,23 L10,24 L9,28 L4,21 L-7,22 L-18,28 L-21,28 L-19,24 L-6,8 Z " fill="#412C32" transform="translate(215,321)"/> <path d="M0,0 L4,1 L9,8 L9,10 L11,11 L13,16 L15,18 L20,27 L21,30 L23,31 L29,41 L37,53 L39,55 L45,64 L52,74 L54,79 L56,79 L56,81 L58,81 L58,84 L60,84 L60,81 L62,81 L64,92 L66,98 L66,113 L65,123 L64,123 L63,97 L57,86 L43,66 L30,48 L18,29 L5,8 Z " fill="#1F121A" transform="translate(489,171)"/> <path d="M0,0 L8,0 L27,5 L48,14 L48,15 L40,14 L13,10 L0,9 Z " fill="#D7803A" transform="translate(383,463)"/> <path d="M0,0 L12,0 L12,9 L-16,12 L-33,14 L-30,11 L-14,5 L-5,2 Z " fill="#F29F47" transform="translate(371,463)"/> <path d="M0,0 L5,1 L27,15 L40,24 L39,26 L31,26 L30,23 L25,21 L25,19 L19,17 L13,13 L5,9 L5,7 L-4,4 L-4,2 L0,2 Z " fill="#E1D6C8" transform="translate(289,665)"/> <path d="M0,0 L1,0 L1,6 L4,7 L5,17 L7,21 L10,32 L13,52 L13,85 L11,88 L10,61 L9,52 L8,51 L4,22 L1,15 L0,9 Z M10,88 Z " fill="#E9DED0" transform="translate(659,411)"/> <path d="M0,0 L3,0 L7,10 L10,17 L12,24 L12,29 L5,28 L-1,23 L-4,22 L-2,37 L-2,43 L-4,40 L-4,36 L-7,36 L-10,27 L-10,19 L-7,17 L0,19 L0,21 L6,23 L8,24 L7,16 L5,16 L0,2 Z " fill="#ECE4DA" transform="translate(670,301)"/> <path d="M0,0 L2,0 L2,2 L7,3 L7,5 L-5,13 L-8,26 L-9,26 L-11,15 L-16,11 L-21,8 L-23,4 L-13,5 Z " fill="#1A1926" transform="translate(330,467)"/> <path d="M0,0 L3,0 L2,11 L-9,12 L-21,16 L-24,15 L-20,10 L-17,10 L-21,10 L-31,16 L-35,15 L-19,7 L-13,4 L-5,2 Z " fill="#D97B35" transform="translate(380,452)"/> <path d="M0,0 L1,0 L2,167 L-1,167 L-2,149 L-4,143 L-3,134 L-2,134 L-1,139 Z " fill="#98402F" transform="translate(382,22)"/> <path d="M0,0 L12,6 L36,20 L38,22 L36,22 L36,24 L30,25 L26,22 L15,16 L11,12 L7,9 L7,7 L1,5 Z " fill="#E0D5C8" transform="translate(253,643)"/> <path d="M0,0 L1,4 L-2,17 L-9,31 L-17,42 L-24,50 L-38,61 L-56,71 L-60,73 L-63,72 L-62,70 L-55,68 L-50,64 L-46,64 L-46,62 L-42,62 L-42,60 L-40,58 L-36,58 L-36,56 L-34,56 L-34,53 L-31,53 L-31,51 L-29,51 L-29,49 L-24,47 L-22,42 L-19,41 L-17,37 L-16,35 L-14,35 L-13,31 L-12,29 L-10,29 L-9,25 L-7,25 L-6,18 L-3,9 L-2,3 L0,3 Z " fill="#77382F" transform="translate(550,310)"/> <path d="M0,0 L2,1 L7,17 L16,36 L21,43 L20,45 L16,40 L13,37 L9,40 L5,32 L1,17 L0,10 Z " fill="#E0DAD4" transform="translate(190,566)"/> <path d="M0,0 L3,4 L10,15 L21,27 L29,34 L37,39 L33,41 L27,43 L25,39 L25,34 L21,32 L21,30 L17,28 L11,26 L11,24 L9,24 L8,19 L5,17 L5,12 L2,11 L2,8 L0,8 Z " fill="#4E2B2B" transform="translate(220,333)"/> <path d="M0,0 L2,0 L3,162 L6,163 L4,168 L1,170 Z " fill="#381C20" transform="translate(382,18)"/> <path d="M0,0 L4,1 L16,8 L20,9 L32,20 L33,22 L30,25 L30,23 L28,23 L28,21 L23,19 L13,13 L-1,4 Z " fill="#F0EDE8" transform="translate(336,701)"/> <path d="M0,0 L2,0 L1,7 L-4,19 L-11,30 L-21,41 L-29,48 L-35,52 L-40,52 L-36,48 L-27,41 L-22,36 L-15,29 L-5,13 Z " fill="#151422" transform="translate(549,321)"/> <path d="M0,0 L1,3 L0,9 L9,25 L13,34 L12,39 L7,39 L9,38 L1,22 L-5,9 L-4,5 L-1,4 Z " fill="#F07520" transform="translate(259,278)"/> <path d="M0,0 Z M-1,1 Z M-2,2 L-1,5 L-10,14 L-11,16 L-13,16 L-15,20 L-20,24 L-24,23 L-27,21 L-27,18 L-31,16 L-35,12 L-35,10 L-30,12 L-30,14 L-28,14 L-28,16 L-24,18 L-20,19 L-18,14 L-12,8 L-6,5 Z " fill="#E9DED2" transform="translate(431,729)"/> <path d="M0,0 L11,3 L22,8 L21,2 L23,2 L25,11 L22,15 L18,13 L14,10 L10,9 L10,7 L6,6 L2,5 L-1,14 L-3,13 L-3,4 Z " fill="#F0EAE1" transform="translate(661,381)"/> <path d="M0,0 L23,0 L27,2 L22,5 L21,7 L19,7 L18,12 L14,11 L15,6 L16,4 L14,4 L12,10 L5,7 L3,3 L4,1 Z " fill="#293242" transform="translate(280,257)"/> <path d="M0,0 L39,1 L39,3 L46,3 L46,4 L-38,4 L-38,3 L0,2 Z " fill="#DDBC7C" transform="translate(383,376)"/> <path d="M0,0 L6,3 L10,7 L21,13 L33,19 L33,21 L37,22 L46,27 L51,30 L53,31 L53,33 L48,32 L44,30 L44,28 L38,26 L22,18 L10,11 L2,3 L0,2 Z " fill="#EBE3D8" transform="translate(261,653)"/> <path d="M0,0 L1,2 L-3,4 L-3,6 L-5,8 L-8,10 L-23,16 L-25,18 L-36,19 L-31,15 L-21,9 L-12,6 Z " fill="#E48A3C" transform="translate(362,460)"/> <path d="M0,0 L2,1 L2,7 L4,7 L7,14 L9,14 L12,21 L23,38 L26,41 L27,44 L29,45 L33,54 L35,59 L37,59 L38,64 L34,60 L22,41 L6,16 L-2,4 L-2,2 L0,2 Z " fill="#923616" transform="translate(434,305)"/> <path d="M0,0 L7,0 L7,2 L11,3 L18,6 L19,8 L9,6 L5,5 L3,8 L3,28 L1,28 L-1,15 L-1,1 Z " fill="#ECE3D8" transform="translate(656,377)"/> <path d="M0,0 L44,0 L45,4 L45,16 L34,22 L23,24 L23,22 L35,19 L36,17 L40,17 L40,15 L43,15 L42,2 L23,2 L0,1 Z " fill="#1C161B" transform="translate(386,380)"/> <path d="M0,0 L1,3 L-4,15 L-11,27 L-20,37 L-23,39 L-27,38 L-26,36 L-22,36 L-22,33 L-18,29 L-16,29 L-14,25 L-11,25 L-9,14 L-6,11 L-2,1 Z " fill="#CF915C" transform="translate(482,431)"/> <path d="M0,0 L2,1 L-14,9 L-19,12 L-21,12 L-21,14 L-30,19 L-33,22 L-35,22 L-36,26 L-43,33 L-47,38 L-51,39 L-49,35 L-42,27 L-31,17 L-13,6 Z " fill="#DB7842" transform="translate(441,141)"/> <path d="M0,0 L2,0 L1,4 L-6,11 L-8,11 L-9,16 L-2,15 L8,11 L12,12 L-9,21 L-15,24 L-14,18 L-8,9 Z " fill="#92594A" transform="translate(205,156)"/> <path d="M0,0 L43,1 L48,5 L33,3 L14,3 L15,8 L19,10 L16,11 L6,6 L0,2 Z " fill="#282624" transform="translate(270,255)"/> <path d="M0,0 L4,1 L3,9 L0,16 L-2,17 L-1,20 L-3,20 L-3,27 L-7,26 L-6,16 Z " fill="#B94824" transform="translate(192,193)"/> <path d="M0,0 L11,2 L15,5 L12,6 L17,9 L21,11 L22,14 L26,16 L26,19 L28,20 L29,22 L33,23 L34,28 L33,31 L21,16 L8,6 L0,1 Z " fill="#1D1019" transform="translate(456,140)"/> <path d="M0,0 L4,2 L11,5 L11,7 L13,7 L14,19 L15,20 L16,38 L12,47 L9,48 L12,38 L13,33 L13,22 L8,10 L1,2 Z " fill="#8B3D2E" transform="translate(594,117)"/> <path d="M0,0 L6,0 L2,5 L-1,7 L-13,11 L-21,15 L-23,15 L-24,12 L-3,1 Z " fill="#833C29" transform="translate(237,117)"/> <path d="M0,0 L1,0 L2,111 L0,113 L-1,110 Z " fill="#1E2C3E" transform="translate(382,627)"/> <path d="M0,0 L22,0 L34,2 L50,8 L50,9 L45,9 L35,5 L27,3 L16,3 L14,8 L0,1 Z " fill="#C7704D" transform="translate(251,46)"/> <path d="M0,0 L1,0 L3,18 L3,22 L5,22 L5,19 L10,16 L11,12 L13,11 L16,3 L17,7 L12,17 L4,26 L2,26 L1,29 L-1,28 Z " fill="#CA9963" transform="translate(403,507)"/> <path d="M0,0 L4,4 L12,15 L11,19 L7,19 L4,14 L4,12 L2,12 L-3,7 L-4,4 Z " fill="#E3D5C4" transform="translate(203,602)"/> <path d="M0,0 L1,0 L3,12 L9,23 L12,27 L12,30 L14,30 L13,32 L10,32 L7,24 L1,14 L-2,16 L-3,23 L-4,23 L-4,7 Z " fill="#1B1D21" transform="translate(343,502)"/> <path d="M0,0 L2,3 L5,17 L10,34 L10,37 L8,37 L-2,19 L1,17 Z " fill="#2B1C19" transform="translate(325,270)"/> <path d="M0,0 L2,0 L3,7 L4,8 L5,15 L7,19 L9,19 L10,25 L14,26 L15,28 L16,8 L18,5 L18,29 L19,34 L11,28 L4,18 L1,12 Z " fill="#E5C589" transform="translate(344,502)"/> <path d="M0,0 L3,0 L1,4 L-7,10 L-12,14 L-14,14 L-14,16 L-16,16 L-16,18 L-21,21 L-27,25 L-29,24 L-21,16 L-4,3 Z " fill="#E1DCDA" transform="translate(434,690)"/> <path d="M0,0 L1,0 L1,6 L3,6 L3,8 L5,8 L4,3 L6,2 L6,9 L-4,26 L-6,27 L-5,19 Z " fill="#21131B" transform="translate(437,280)"/> <path d="M0,0 L1,0 L1,108 L0,108 Z " fill="#DDBC7C" transform="translate(383,268)"/> <path d="M0,0 L1,0 L3,14 L7,28 L13,55 L14,63 L12,60 L8,46 L5,33 L4,32 L1,16 L0,14 Z " fill="#463942" transform="translate(145,483)"/> <path d="M0,0 L4,2 L17,13 L13,14 L15,19 L18,23 L18,27 L20,27 L21,32 L18,31 L7,10 L0,1 Z " fill="#D7D3D0" transform="translate(624,282)"/> <path d="M0,0 L6,2 L13,7 L10,8 L10,12 L11,16 L7,17 L5,13 L1,11 L-2,7 L3,8 L2,4 Z " fill="#F0EDE9" transform="translate(219,623)"/> <path d="M0,0 L2,1 L20,1 L45,2 L45,3 L38,4 L-2,5 Z " fill="#F8EAA5" transform="translate(338,375)"/> <path d="M0,0 L2,3 L5,11 L6,23 L2,19 L-2,11 L-4,6 L-3,2 Z " fill="#602F27" transform="translate(571,192)"/> <path d="M0,0 L4,1 L-20,13 L-39,25 L-46,30 L-45,26 L-40,23 L-37,22 L-37,20 L-31,18 L-31,16 L-27,16 L-27,14 L-22,13 L-21,10 L-1,1 Z " fill="#623732" transform="translate(193,394)"/> <path d="M0,0 L3,2 L5,12 L6,27 L6,45 L4,49 L3,47 L3,36 L2,27 L2,7 Z " fill="#CF915C" transform="translate(479,382)"/> <path d="M0,0 L2,2 L5,11 L8,20 L7,24 L2,25 L0,22 L-10,18 L-10,16 L-5,17 L3,20 L0,4 Z " fill="#E7DCCE" transform="translate(673,361)"/> <path d="M0,0 L1,0 L1,61 L5,59 L3,64 L0,66 L-7,57 L-5,56 L-2,59 L-2,62 L0,62 Z " fill="#ECB265" transform="translate(382,472)"/> <path d="M0,0 L2,0 L2,2 L-9,8 L-14,14 L-14,28 L-16,32 L-17,8 Z " fill="#18141C" transform="translate(500,377)"/> <path d="M0,0 L1,2 L6,3 L16,8 L12,9 L5,7 L-6,6 L-8,13 L-10,13 L-11,17 L-12,15 L-7,1 L-2,2 Z " fill="#574043" transform="translate(120,336)"/> <path d="M0,0 L5,0 L5,2 L2,4 L-2,4 L-3,7 L-8,10 L-14,12 L-18,14 L-21,12 L-4,2 Z " fill="#DDD9D5" transform="translate(495,652)"/> <path d="M0,0 L4,2 L11,10 L13,13 L10,14 L13,17 L12,21 L9,20 L6,15 L2,12 L2,10 L4,10 L3,5 Z " fill="#E1DAD1" transform="translate(210,611)"/> <path d="M0,0 L3,1 L8,12 L7,14 L4,10 L2,10 L3,19 L2,22 L1,37 L0,37 Z " fill="#A64227" transform="translate(345,68)"/> <path d="M0,0 L1,3 L0,5 L0,27 L-6,22 L-12,14 L-10,13 L-6,16 L-3,15 L-3,8 Z " fill="#DEBB82" transform="translate(340,504)"/> <path d="M0,0 L2,0 L9,14 L19,28 L19,30 L15,28 L11,23 L10,18 L8,18 L3,9 L1,8 L0,12 Z " fill="#1C1A1A" transform="translate(362,508)"/> <path d="M0,0 L1,0 L3,11 L3,32 L1,42 L0,42 Z " fill="#E9DFD8" transform="translate(650,443)"/> <path d="M0,0 L2,3 L4,13 L4,23 L0,34 L-3,39 L-5,38 L-4,34 L-2,34 L0,25 L1,21 L1,13 Z M-6,39 Z " fill="#D39D65" transform="translate(440,479)"/> <path d="M0,0 L4,0 L4,2 L-7,9 L-14,14 L-15,10 L-11,10 L-11,7 L-15,6 L-3,1 Z " fill="#231A21" transform="translate(305,140)"/> <path d="M0,0 L2,3 L-5,10 L-13,21 L-18,21 L-16,17 L-9,10 L-2,2 Z " fill="#DED8D4" transform="translate(601,573)"/> <path d="M0,0 L2,0 L4,5 L6,5 L7,12 L11,22 L11,27 L8,26 L0,3 Z " fill="#E6DED7" transform="translate(648,272)"/> <path d="M0,0 L3,2 L2,7 L-3,15 L-5,11 L-13,23 L-15,23 L-13,19 Z " fill="#DF8134" transform="translate(249,213)"/> <path d="M0,0 L4,2 L15,13 L21,18 L17,19 L12,15 L12,13 L7,11 L6,7 L1,5 L-2,5 Z " fill="#663630" transform="translate(158,196)"/> <path d="M0,0 L0,3 L-8,11 L-13,16 L-24,27 L-30,32 L-32,31 L-10,9 L-2,2 Z M-33,32 Z M-34,33 Z " fill="#5E3E3F" transform="translate(152,304)"/> <path d="M0,0 L6,2 L10,6 L10,8 L14,10 L16,14 L18,19 L18,22 L15,21 L12,12 L8,10 L0,3 L-2,1 Z " fill="#F6F3ED" transform="translate(635,121)"/> <path d="M0,0 L1,4 L0,11 L0,21 L2,33 L3,38 L0,34 L-3,27 L-3,11 L-1,1 Z " fill="#E8C37E" transform="translate(325,479)"/> <path d="M0,0 L4,4 L6,12 L1,15 L-4,17 L-13,27 L-15,27 L-16,30 L-15,25 L-13,25 L-12,21 L-1,12 L1,12 L2,5 L0,4 Z " fill="#DF8539" transform="translate(466,362)"/> <path d="M0,0 L3,0 L4,14 L6,24 L4,25 L3,22 L1,21 L0,15 Z " fill="#F0EAE1" transform="translate(659,396)"/> <path d="M0,0 L1,0 L3,28 L3,36 L1,36 L-1,24 L-1,1 Z " fill="#743F27" transform="translate(211,269)"/> <path d="M0,0 L3,4 L6,11 L2,10 L-14,4 L-20,3 L-20,2 L-12,2 L-10,3 L-2,3 Z " fill="#F9E6D5" transform="translate(299,45)"/> <path d="M0,0 L6,3 L5,9 L3,19 L0,23 L-1,32 L-7,29 L-5,28 L-3,29 L-3,22 L2,11 L4,3 L0,2 Z " fill="#A34C36" transform="translate(192,191)"/> <path d="M0,0 L9,3 L16,6 L13,8 L13,11 L12,13 L9,13 L8,8 L3,6 L2,2 L0,2 Z " fill="#CF6743" transform="translate(296,39)"/> <path d="M0,0 L5,2 L11,6 L9,8 L4,9 L-6,3 L-8,1 Z " fill="#E3DED7" transform="translate(328,690)"/> <path d="M0,0 L21,0 L21,2 L3,2 L1,16 L4,17 L2,18 L-1,16 Z " fill="#2B2B29" transform="translate(335,380)"/> <path d="M0,0 L0,3 L-7,13 L-18,25 L-22,29 L-21,25 L-17,20 L-10,12 L-2,1 Z " fill="#EBE5DC" transform="translate(638,581)"/> <path d="M0,0 L9,6 L13,10 L13,27 L11,27 L10,12 L9,8 L4,6 L-2,5 Z " fill="#CE8A48" transform="translate(366,416)"/> <path d="M0,0 L4,1 L-6,10 L-12,15 L-15,21 L-21,26 L-19,21 L-8,7 Z " fill="#3D333C" transform="translate(218,385)"/> <path d="M0,0 L2,3 L4,14 L2,19 L-3,40 L-5,47 L-6,47 L-5,39 L-2,27 L-1,17 L1,17 Z " fill="#DF7A3F" transform="translate(438,252)"/> <path d="M0,0 L5,1 L30,14 L36,18 L36,19 L29,19 L30,16 L21,13 L20,11 L16,10 L16,8 L12,8 L12,6 L8,5 L0,2 Z " fill="#AE6B41" transform="translate(404,460)"/> <path d="M0,0 L6,1 L18,11 L16,13 L4,6 L-1,3 Z " fill="#E7E3DB" transform="translate(336,697)"/> <path d="M0,0 L4,5 L14,19 L20,27 L19,29 L16,26 L16,24 L12,23 L11,19 L9,19 L7,15 L7,12 L4,11 L2,4 L0,4 Z " fill="#B34E37" transform="translate(514,211)"/> <path d="M0,0 L5,4 L7,12 L9,12 L11,18 L12,29 L10,29 L6,14 L3,9 Z " fill="#ECE2D7" transform="translate(652,258)"/> <path d="M0,0 L2,4 L5,5 L5,7 L7,7 L10,12 L10,14 L12,14 L19,22 L16,22 L8,15 L4,10 L2,9 L0,4 Z " fill="#ECE5DA" transform="translate(200,607)"/> <path d="M0,0 L2,0 L5,9 L3,12 L1,12 L1,14 L-1,14 L-4,23 L-7,22 L-2,12 Z " fill="#231C19" transform="translate(421,502)"/> <path d="M0,0 L2,0 L2,4 L11,6 L22,4 L21,7 L17,9 L6,9 L-2,3 L-2,1 Z " fill="#DC8639" transform="translate(413,417)"/> <path d="M0,0 L1,0 L1,15 L9,19 L18,25 L15,26 L8,23 L2,22 L2,17 L-1,17 L-1,6 Z " fill="#EEB35A" transform="translate(334,381)"/> <path d="M0,0 L2,1 L3,9 L6,9 L11,24 L13,33 L11,34 L9,23 L7,23 L1,7 Z " fill="#E9DDCF" transform="translate(660,328)"/> <path d="M0,0 L4,4 L6,6 L-2,16 L-5,16 L-4,11 Z " fill="#6A4947" transform="translate(119,270)"/> <path d="M0,0 L5,5 L9,11 L9,15 L4,16 L2,6 L2,4 L-3,4 L-4,2 Z " fill="#E9BB76" transform="translate(316,280)"/> <path d="M0,0 L1,0 L1,6 L-2,10 L-4,10 L-6,14 L-13,22 L-22,28 L-29,28 L-29,27 L-21,25 L-12,18 L-5,9 Z " fill="#1A1314" transform="translate(477,446)"/> <path d="M0,0 L1,0 L1,13 L4,13 L4,9 L9,7 L7,11 L0,19 L-3,19 L-2,16 L-1,1 Z " fill="#B38B5E" transform="translate(427,511)"/> <path d="M0,0 L1,0 L1,12 L-3,24 L-6,26 L-5,17 L-3,14 L-1,1 Z " fill="#E9DED0" transform="translate(670,499)"/> </svg> 